<?xml version="1.0" encoding="UTF-8" standalone="no"?>
<!-- Created with Inkscape (http://www.inkscape.org/) -->

<svg
   xmlns:dc="http://purl.org/dc/elements/1.1/"
   xmlns:cc="http://creativecommons.org/ns#"
   xmlns:rdf="http://www.w3.org/1999/02/22-rdf-syntax-ns#"
   xmlns:svg="http://www.w3.org/2000/svg"
   xmlns="http://www.w3.org/2000/svg"
   xmlns:sodipodi="http://sodipodi.sourceforge.net/DTD/sodipodi-0.dtd"
   xmlns:inkscape="http://www.inkscape.org/namespaces/inkscape"
   width="44.851009mm"
   height="44.851009mm"
   viewBox="0 0 44.851009 44.851009"
   version="1.1"
   id="svg8"
   inkscape:version="0.92.2 5c3e80d, 2017-08-06"
   sodipodi:docname="drawing.svg">
  <defs
     id="defs2" />
  <sodipodi:namedview
     id="base"
     pagecolor="#ffffff"
     bordercolor="#666666"
     borderopacity="1.0"
     inkscape:pageopacity="0.0"
     inkscape:pageshadow="2"
     inkscape:zoom="0.98994949"
     inkscape:cx="381.65437"
     inkscape:cy="-203.27307"
     inkscape:document-units="mm"
     inkscape:current-layer="g113"
     showgrid="false"
     inkscape:window-width="1920"
     inkscape:window-height="1084"
     inkscape:window-x="0"
     inkscape:window-y="1"
     inkscape:window-maximized="1" />
  <metadata
     id="metadata5">
    <rdf:RDF>
      <cc:Work
         rdf:about="">
        <dc:format>image/svg+xml</dc:format>
        <dc:type
           rdf:resource="http://purl.org/dc/dcmitype/StillImage" />
        <dc:title></dc:title>
      </cc:Work>
    </rdf:RDF>
  </metadata>
  <g
     inkscape:label="Layer 1"
     inkscape:groupmode="layer"
     id="layer1"
     transform="translate(-3.1533301,-1.8351937)">
    <flowRoot
       xml:space="preserve"
       id="flowRoot10"
       style="font-style:normal;font-weight:normal;font-size:40px;line-height:1.25;font-family:sans-serif;letter-spacing:0px;word-spacing:0px;fill:#000000;fill-opacity:1;stroke:none"
       transform="scale(0.26458333)"><flowRegion
         id="flowRegion12"><rect
           id="rect14"
           width="174.28572"
           height="128.57143"
           x="145.71428"
           y="205.37683" /></flowRegion><flowPara
         id="flowPara16"></flowPara></flowRoot>    <flowRoot
       xml:space="preserve"
       id="flowRoot22"
       style="font-style:normal;font-weight:normal;font-size:40px;line-height:1.25;font-family:sans-serif;letter-spacing:0px;word-spacing:0px;fill:#000000;fill-opacity:1;stroke:none"
       transform="scale(0.26458333)"><flowRegion
         id="flowRegion24"><rect
           id="rect26"
           width="228.57143"
           height="248.57143"
           x="160"
           y="145.37683" /></flowRegion><flowPara
         id="flowPara28"></flowPara></flowRoot>    <flowRoot
       xml:space="preserve"
       id="flowRoot40"
       style="font-style:normal;font-weight:normal;font-size:40px;line-height:1.25;font-family:sans-serif;letter-spacing:0px;word-spacing:0px;fill:#000000;fill-opacity:1;stroke:none"
       transform="scale(0.26458333)"><flowRegion
         id="flowRegion42"><rect
           id="rect44"
           width="312.85715"
           height="240"
           x="202.85715"
           y="212.51968" /></flowRegion><flowPara
         id="flowPara46"></flowPara></flowRoot>    <g
       id="g113"
       transform="translate(38.364584,10.205357)">
      <path
         style="fill:#ffffff;stroke-width:0.08466667;fill-opacity:0"
         d="m -15.329952,36.426232 c -0.08254,-0.13809 -1.580705,-5.54127 -1.580705,-5.70086 0,-0.0938 0.426388,-0.88302 0.947528,-1.75389 0.808968,-1.35187 0.946081,-1.63294 0.937623,-1.92208 -0.0055,-0.18627 -0.28098,-2.52942 -0.61229,-5.207 -0.331311,-2.67758 -0.591317,-4.97623 -0.577789,-5.10809 0.02283,-0.22253 0.1341,-0.29073 1.548594,-0.94913 0.838201,-0.39016 1.556651,-0.71089 1.596559,-0.71275 0.129701,-0.006 -0.02503,0.26834 -1.064671,1.88773 l -1.023824,1.59477 0.315053,2.59623 c 0.278781,2.29734 0.381575,2.85183 0.503802,2.7176 0.10231,-0.11237 4.6544227,-7.91647 4.6834607,-8.02929 0.01917,-0.0745 -0.119994,-1.18298 -0.309246,-2.463354 l -0.3440967,-2.327951 0.268794,-0.381383 c 0.1478357,-0.20976 0.3458957,-0.485689 0.4401337,-0.613174 0.3690967,-0.49932 0.8068164,-0.667561 -8.4949647,3.265101 -1.844172,0.77969 -2.077096,0.899788 -2.099229,1.082386 -0.01369,0.112962 0.167724,1.652495 0.40315,3.421175 0.471052,3.53888 0.567202,4.47242 0.440216,4.27413 -0.06671,-0.10416 -1.096653,-3.68216 -2.108156,-7.32367 -0.186899,-0.672849 -0.20695,-0.878972 -0.171393,-1.76186 0.02215,-0.549923 0.0742,-1.033149 0.115675,-1.073833 0.147243,-0.144447 14.5418552,-5.591708 14.6059352,-5.527228 0.0358,0.03607 -0.14156,2.580191 -0.394221,5.653591 -0.25267,3.0734 -0.457716,5.75945 -0.45565,5.969 0.0068,0.69211 0.13953,0.10432 0.501301,-2.21991 0.19049,-1.2238 0.6683997,-4.287768 1.0620297,-6.808818 0.39362,-2.52105 0.71568,-4.607025 0.71568,-4.6355 0,-0.02848 -0.0579,-0.05177 -0.12861,-0.05177 -0.0707,0 -3.5260315,1.1811 -7.6784319,2.624666 -4.152401,1.443567 -7.599727,2.624667 -7.660725,2.624667 -0.178458,0 -0.130825,-0.307829 0.195368,-1.262568 0.584999,-1.712237 1.467233,-3.234282 2.56729,-4.429132 1.997389,-2.169505 5.613978,-3.53696696 9.3543771,-3.53696696 5.1116818,0 8.87241174,2.50754496 11.0473018,7.36599996 0.35094,0.783975 0.93943,2.510265 0.93943,2.755775 0,0.136588 -0.1767,0.289352 -0.71562,0.618674 -2.56392006,1.566766 -4.8482501,4.035123 -5.92898,6.406613 -0.89975,1.97436 -1.30789,4.34836 -1.0768,6.26327 0.0676,0.56024 0.0596,0.71264 -0.0464,0.88155 -0.13821,0.22032 -9.4182769,10.68097 -10.1278469,11.41628 -0.427577,0.4431 -0.517746,0.50135 -0.589682,0.381 z M 6.0340069,9.570508 c -0.95461,-0.02591 -1.77798,-0.07465 -1.82969,-0.108309 -0.0517,-0.03366 -0.16034,-0.300362 -0.24136,-0.592667 -0.35531,-1.281736 -1.11396,-2.900449 -1.9273901,-4.112445 -1.86055999,-2.772189 -4.92226,-4.71929096 -8.7015599,-5.53380196 -1.5631727,-0.33689404 -3.8634289,-0.22739004 -5.8843309,0.280122 -3.952121,0.992504 -7.069028,3.56267896 -8.849447,7.29717896 -0.269942,0.566215 -0.591828,1.362857 -0.715303,1.770316 -0.123473,0.407458 -0.269817,0.744775 -0.325207,0.749593 -0.492803,0.04287 -4.972689,-0.181014 -7.919128,-0.395754 -1.83782,-0.133943 -3.115263,-0.310487 -3.254558,-0.449781 -0.08778,-0.08778 0.428425,-1.669431 1.009136,-3.091997 0.835884,-2.047665 2.257894,-4.51124296 3.499007,-6.06189496 0.843181,-1.05347404 1.705146,-1.94733304 1.877849,-1.94733304 0.09272,0 1.23407,0.381 2.536333,0.846666 2.177777,0.778736 2.616318,0.91425704 2.616318,0.80851904 0,-0.02098 -0.531853,-0.90476704 -1.181895,-1.96396704 -0.933763,-1.521502 -1.161531,-1.950358 -1.084895,-2.042698 0.05335,-0.06428 0.458178,-0.329443 0.899618,-0.589244 2.415922,-1.421846 5.651768,-2.4253574 8.947322,-2.7747744 0.431249,-0.04572 0.53126,-0.03017 0.644334,0.100186 0.07362,0.08487 0.582026,0.9544124 1.129796,1.9323124 1.091962,1.949412 1.141955,2.027547 1.234709,1.929755 0.035,-0.0369 0.203339,-0.924339 0.374092,-1.972089 0.170752,-1.04775 0.345778,-1.9413104 0.388946,-1.9856904 0.04969,-0.05109 0.303565,-0.04229 0.692063,0.024 2.3632812,0.403211 4.7453009,1.1581754 6.7030909,2.1244974 1.3647399,0.67361 3.04938994,1.708148 3.13195994,1.923334 0.0243,0.06318 0.10281,0.829323 0.1746,1.702537 0.16252997,1.97737604 0.20510997,2.30732604 0.29772997,2.30732604 0.0406,0 0.40709999,-0.4953 0.81451999,-1.10066604 0.40743,-0.605367 0.78812,-1.100667 0.84601,-1.100667 0.11383,0 1.1049201,1.060162 1.8204601,1.94733304 1.88594,2.33833496 3.63134,6.06054196 4.2397303,9.04157796 0.17103,0.837971 0.1795,0.965775 0.0686,1.03587 -0.0696,0.04398 -0.16458,0.07317 -0.21114,0.06486 -0.0466,-0.0083 -0.8657203,-0.03629 -1.8203403,-0.0622 z"
         id="path115"
         inkscape:connector-curvature="0" />
    </g>
  </g>
</svg>
