<?xml version="1.0" encoding="UTF-8" standalone="no"?>
<!-- Created with Inkscape (http://www.inkscape.org/) -->

<svg
   xmlns:dc="http://purl.org/dc/elements/1.1/"
   xmlns:cc="http://creativecommons.org/ns#"
   xmlns:rdf="http://www.w3.org/1999/02/22-rdf-syntax-ns#"
   xmlns:svg="http://www.w3.org/2000/svg"
   xmlns="http://www.w3.org/2000/svg"
   xmlns:sodipodi="http://sodipodi.sourceforge.net/DTD/sodipodi-0.dtd"
   xmlns:inkscape="http://www.inkscape.org/namespaces/inkscape"
   width="66.726768mm"
   height="66.73877mm"
   viewBox="0 0 66.726768 66.73877"
   version="1.1"
   id="svg8"
   inkscape:version="0.92.2 5c3e80d, 2017-08-06"
   sodipodi:docname="drawing.svg">
  <defs
     id="defs2" />
  <sodipodi:namedview
     id="base"
     pagecolor="#ffffff"
     bordercolor="#666666"
     borderopacity="1.0"
     inkscape:pageopacity="0.0"
     inkscape:pageshadow="2"
     inkscape:zoom="0.49497475"
     inkscape:cx="853.81739"
     inkscape:cy="-434.24012"
     inkscape:document-units="mm"
     inkscape:current-layer="g75"
     showgrid="false"
     inkscape:window-width="1920"
     inkscape:window-height="1084"
     inkscape:window-x="0"
     inkscape:window-y="1"
     inkscape:window-maximized="1"
     fit-margin-top="0"
     fit-margin-left="0"
     fit-margin-right="0"
     fit-margin-bottom="0" />
  <metadata
     id="metadata5">
    <rdf:RDF>
      <cc:Work
         rdf:about="">
        <dc:format>image/svg+xml</dc:format>
        <dc:type
           rdf:resource="http://purl.org/dc/dcmitype/StillImage" />
        <dc:title></dc:title>
      </cc:Work>
    </rdf:RDF>
  </metadata>
  <g
     inkscape:label="Layer 1"
     inkscape:groupmode="layer"
     id="layer1"
     transform="translate(-0.56292,-0.22280124)">
    <g
       id="g75"
       transform="translate(111.88095)">
      <path
         style="fill:#ffffff;stroke-width:0.35277775"
         d="m -83.797724,66.581938 c -13.018431,-2.5299 -23.223506,-11.984799 -26.689666,-24.727719 -1.10752,-4.07167 -1.10752,-12.50889 0,-16.58056 1.75054,-6.43562 5.29963,-12.11074 10.08028,-16.4583403 3.971673,-3.6119 8.793358,-6.30757 14.139942,-7.76187 4.07167,-1.10752995 12.508885,-1.10752995 16.580554,0 11.898262,3.2364 20.96991,12.3738803 24.220835,24.3966003 1.166022,4.31224 1.166022,11.91554 0,16.22778 -3.263025,12.06746 -12.28866,21.137939 -24.220835,24.341189 -3.61891,0.97152 -10.579671,1.24919 -14.11111,0.56292 z m 12.437437,-5.327019 c 10.313073,-2.42931 18.569875,-10.73158 21.139554,-21.25597 0.774273,-3.17112 0.774273,-9.69889 0,-12.87001 -3.44491,-14.109 -17.048556,-23.6848003 -31.019352,-21.8349803 -13.369355,1.77019 -23.236595,11.6374303 -25.006785,25.0067903 -1.95756,14.78444 9.04077,29.17448 24.036646,31.449159 2.830507,0.42935 7.909517,0.19764 10.849937,-0.494989 z m -11.555492,-3.19121 c -2.941879,-0.63038 -4.233333,-1.89342 -4.233333,-4.14018 0,-1.24619 0.534402,-2.4292 3.142834,-6.95729 3.877509,-6.73114 4.149185,-7.0523 5.965665,-7.0523 1.87924,0 2.334115,0.5269 6.102727,7.069 3.612913,6.27181 3.911155,7.58343 2.163078,9.5129 -1.731927,1.91164 -8.029931,2.66307 -13.140971,1.56787 z m -12.170833,-6.45064 c -2.065034,-1.25942 -5.244748,-6.075 -6.505308,-9.8521 -0.77383,-2.31866 -0.70953,-3.44975 0.28322,-4.98196 1.00099,-1.54493 2.337514,-1.80406 9.297563,-1.80264 5.770477,0.001 6.568223,0.0737 7.57691,0.68873 1.451184,0.88484 1.840457,2.59144 0.979496,4.29418 -2.637163,5.21555 -6.429335,11.36273 -7.281464,11.80338 -1.321642,0.68345 -3.083861,0.62286 -4.350417,-0.14959 z m 29.94356,-0.006 c -0.974523,-0.61181 -4.876235,-6.79418 -7.35096,-11.6478 -0.867057,-1.70053 -0.479697,-3.40752 0.974457,-4.29418 1.008686,-0.61503 1.806433,-0.68755 7.576911,-0.68873 7.263048,-0.001 8.408521,0.25863 9.610519,2.18232 1.002171,1.60388 0.72177,3.21063 -1.268356,7.26789 -2.117477,4.3169 -4.982329,7.45526 -7.030578,7.7018 -1.015351,0.12221 -1.719865,-0.024 -2.511993,-0.5213 z m -34.529807,-19.94316 c -1.304781,-0.56865 -1.876591,-1.23442 -2.285871,-2.6615 -0.66565,-2.32101 2.027372,-8.32207 5.284339,-11.77546 1.58713,-1.68286 2.197558,-2.09069 3.351668,-2.23928 2.378272,-0.30619 3.349439,0.68639 7.10089,7.25746 1.818329,3.185 3.306054,6.09007 3.306054,6.45571 0,1.09748 -0.945476,2.58176 -1.930421,3.03053 -1.329827,0.60591 -13.407687,0.55096 -14.826659,-0.0675 z m 28.167828,-0.1923 c -1.184194,-0.72207 -1.766835,-2.25952 -1.351817,-3.56713 0.358821,-1.13054 6.136873,-10.99407 6.962718,-11.88583 0.834994,-0.90164 2.636047,-1.34152 4.044918,-0.98792 2.720739,0.68287 7.892094,8.95081 7.948901,12.70869 0.01288,0.85099 -0.248796,1.86189 -0.63417,2.45004 -1.1251,1.71712 -2.306511,1.9635 -9.408163,1.96205 -5.741754,-10e-4 -6.57165,-0.0758 -7.562387,-0.6799 z m -8.477562,-4.93556 c -1.214368,-1.13136 -6.884356,-11.34247 -7.071035,-12.73427 -0.256928,-1.91554 0.672752,-3.42823 2.66359,-4.3339703 1.396224,-0.63521 2.330341,-0.75279 6.060369,-0.76283 5.192257,-0.014 7.381074,0.49296 8.652499,2.0039703 1.616456,1.92104 1.294712,3.26397 -2.260716,9.43599 -1.723267,2.9915 -3.486182,5.80582 -3.917583,6.25405 -0.99888,1.03783 -3.085863,1.10714 -4.127124,0.13706 z"
         id="path77"
         inkscape:connector-curvature="0"
         sodipodi:nodetypes="sssssssscscsssssccsssscccssccccccccccsccccssssscccccscccccssssscc" />
    </g>
  </g>
</svg>
