<?xml version="1.0" encoding="UTF-8" standalone="no"?>
<svg
   xmlns:dc="http://purl.org/dc/elements/1.1/"
   xmlns:cc="http://creativecommons.org/ns#"
   xmlns:rdf="http://www.w3.org/1999/02/22-rdf-syntax-ns#"
   xmlns:svg="http://www.w3.org/2000/svg"
   xmlns="http://www.w3.org/2000/svg"
   id="svg8"
   version="1.1"
   viewBox="0 0 42.171532 54.544266"
   height="54.544266mm"
   width="42.171532mm">
  <defs
     id="defs2" />
  <metadata
     id="metadata5">
    <rdf:RDF>
      <cc:Work
         rdf:about="">
        <dc:format>image/svg+xml</dc:format>
        <dc:type
           rdf:resource="http://purl.org/dc/dcmitype/StillImage" />
        <dc:title></dc:title>
      </cc:Work>
    </rdf:RDF>
  </metadata>
  <g
     transform="translate(-72.297069,-68.735051)"
     id="layer1">
    <path
       id="path3713"
       transform="scale(-1)"
       d="m -93.659312,-91.142841 c 0.0041,-0.618517 0.181288,-1.160407 0.478137,-1.618502 m 0,0 c 0.296849,-0.458095 0.713402,-0.832394 1.196359,-1.11573 m 0,0 c 0.482956,-0.283336 1.032317,-0.475709 1.594783,-0.569949 m 0,0 c 0.562466,-0.09424 1.138036,-0.09035 1.673412,0.01884 m 0,0 c 0.894639,0.182466 1.66892,0.570963 2.312158,1.102422 m 0,0 c 0.643238,0.53146 1.155434,1.205881 1.525904,1.960197 m 0,0 c 0.37047,0.754317 0.599214,1.588527 0.675548,2.439564 m 0,0 c 0.07633,0.851038 2.59e-4,1.718902 -0.238909,2.540524 m 0,0 c -0.340561,1.169939 -0.931313,2.17779 -1.694862,3.008007 m 0,0 c -0.76355,0.830217 -1.699898,1.482799 -2.731649,1.9422 m 0,0 c -1.031752,0.459401 -2.158908,0.725621 -3.304074,0.783113 m 0,0 c -1.145166,0.05749 -2.308343,-0.09374 -3.412137,-0.469254 m 0,0 c -1.44614,-0.491977 -2.688707,-1.282014 -3.706941,-2.276864 m -3.251287,-7.680861 c -0.0379,-1.441106 0.19016,-2.900526 0.7048,-4.285013 m 0,0 c 0.64046,-1.722997 1.6285,-3.200975 2.854324,-4.407806 m 0,0 c 1.225826,-1.206837 2.689439,-2.142517 4.281053,-2.780927 m 0,0 c 1.591614,-0.6384 3.311227,-0.97953 5.049052,-0.99725 m 7.829354,1.66652 c 2.538932,1.45664 4.932814,5.890657 5.640465,7.763145 m 0,0 c 0.728119,1.872488 1.10662,3.889552 1.103923,5.924498 m 0,0 c -0.0027,2.034946 -0.38659,4.087775 -1.18326,6.031794 m 0,0 c -0.93347,2.277835 -2.3158,4.227765 -4.003175,5.812712 m 0,0 c -1.687376,1.584946 -3.679798,2.804909 -5.83345,3.622808 m -6.800833,1.21043 c -2.332298,-0.02331 -4.682012,-0.485755 -6.905327,-1.424425 m 0,0 c -2.555586,-1.078954 -4.741826,-2.657998 -6.516096,-4.576054 m 0,0 c -1.77427,-1.918057 -3.13657,-4.175125 -4.0443,-6.610128 m 0,0 c -0.90772,-2.435003 -1.36087,-5.047941 -1.31682,-7.677737 m 1.66633,-7.778882 c 0.89799,-2.078691 2.11281,-3.961681 3.57043,-5.611631 m 0,0 c 1.45762,-1.64995 3.15804,-3.06685 5.0272,-4.21337 m 6.039671,-2.59104 c 0.900252,-0.23994 1.918413,-0.32402 2.963613,-0.33471 1.430775,-0.0146 3.981296,0.10823 5.280312,0.157"
       style="fill:none;fill-rule:evenodd;stroke:#3eaf7c;stroke-width:5.56500006;stroke-linecap:round;stroke-miterlimit:19;stroke-dasharray:none;stroke-opacity:1" />
    <path
       style="fill:none;fill-rule:evenodd;stroke:#3eaf7c;stroke-width:5.56500006;stroke-linecap:round;stroke-miterlimit:19;stroke-dasharray:none;stroke-opacity:1"
       d="m -93.659312,-91.142841 c 0.0041,-0.618517 0.181288,-1.160407 0.478137,-1.618502 m 0,0 c 0.296849,-0.458095 0.713402,-0.832394 1.196359,-1.11573 m 0,0 c 0.482956,-0.283336 1.032317,-0.475709 1.594783,-0.569949 m 0,0 c 0.562466,-0.09424 1.138036,-0.09035 1.673412,0.01884 m 0,0 c 0.894639,0.182466 1.66892,0.570963 2.312158,1.102422 m 0,0 c 0.643238,0.53146 1.155434,1.205881 1.525904,1.960197 m 0,0 c 0.37047,0.754317 0.599214,1.588527 0.675548,2.439564 m 0,0 c 0.07633,0.851038 2.59e-4,1.718902 -0.238909,2.540524 m 0,0 c -0.340561,1.169939 -0.931313,2.17779 -1.694862,3.008007 m 0,0 c -0.76355,0.830217 -1.699898,1.482799 -2.731649,1.9422 m 0,0 c -1.031752,0.459401 -2.158908,0.725621 -3.304074,0.783113 m 0,0 c -1.145166,0.05749 -2.308343,-0.09374 -3.412137,-0.469254 m 0,0 c -1.44614,-0.491977 -2.688707,-1.282014 -3.706941,-2.276864 m -3.251287,-7.680861 c -0.0379,-1.441106 0.19016,-2.900526 0.7048,-4.285013 m 0,0 c 0.64046,-1.722997 1.6285,-3.200975 2.854324,-4.407806 m 0,0 c 1.225826,-1.206837 2.689439,-2.142517 4.281053,-2.780927 m 0,0 c 1.591614,-0.6384 3.311227,-0.97953 5.049052,-0.99725 m 7.829354,1.66652 c 2.538932,1.45664 4.932814,5.890657 5.640465,7.763145 m 0,0 c 0.728119,1.872488 1.10662,3.889552 1.103923,5.924498 m 0,0 c -0.0027,2.034946 -0.38659,4.087775 -1.18326,6.031794 m 0,0 c -0.93347,2.277835 -2.3158,4.227765 -4.003175,5.812712 m 0,0 c -1.687376,1.584946 -3.679798,2.804909 -5.83345,3.622808 m -6.800833,1.21043 c -2.332298,-0.02331 -4.682012,-0.485755 -6.905327,-1.424425 m 0,0 c -2.555586,-1.078954 -4.741826,-2.657998 -6.516096,-4.576054 m 0,0 c -1.77427,-1.918057 -3.13657,-4.175125 -4.0443,-6.610128 m 0,0 c -0.90772,-2.435003 -1.36087,-5.047941 -1.31682,-7.677737 m 1.66633,-7.778882 c 0.89799,-2.078691 2.11281,-3.961681 3.57043,-5.611631 m 0,0 c 1.45762,-1.64995 3.15804,-3.06685 5.0272,-4.21337 m 6.707845,-10.71753 c 2.132608,-0.5684 4.926882,-0.26211 7.174847,-0.17771"
       transform="scale(-1)"
       id="path4554" />
  </g>
</svg>
