<?xml version="1.0" encoding="UTF-8" standalone="no"?>
<!-- Created with Inkscape (http://www.inkscape.org/) -->

<svg
   xmlns:dc="http://purl.org/dc/elements/1.1/"
   xmlns:cc="http://creativecommons.org/ns#"
   xmlns:rdf="http://www.w3.org/1999/02/22-rdf-syntax-ns#"
   xmlns:svg="http://www.w3.org/2000/svg"
   xmlns="http://www.w3.org/2000/svg"
   xmlns:sodipodi="http://sodipodi.sourceforge.net/DTD/sodipodi-0.dtd"
   xmlns:inkscape="http://www.inkscape.org/namespaces/inkscape"
   width="45mm"
   height="45mm"
   viewBox="0 0 45 45"
   version="1.1"
   id="svg2381"
   inkscape:version="0.92.2 5c3e80d, 2017-08-06"
   sodipodi:docname="bulb.svg">
  <defs
     id="defs2375" />
  <sodipodi:namedview
     id="base"
     pagecolor="#ffffff"
     bordercolor="#666666"
     borderopacity="1.0"
     inkscape:pageopacity="0.0"
     inkscape:pageshadow="2"
     inkscape:zoom="1.4"
     inkscape:cx="244.57871"
     inkscape:cy="22.416335"
     inkscape:document-units="mm"
     inkscape:current-layer="layer1"
     showgrid="false"
     inkscape:window-width="1920"
     inkscape:window-height="1086"
     inkscape:window-x="0"
     inkscape:window-y="1"
     inkscape:window-maximized="1" />
  <metadata
     id="metadata2378">
    <rdf:RDF>
      <cc:Work
         rdf:about="">
        <dc:format>image/svg+xml</dc:format>
        <dc:type
           rdf:resource="http://purl.org/dc/dcmitype/StillImage" />
        <dc:title></dc:title>
      </cc:Work>
    </rdf:RDF>
  </metadata>
  <g
     inkscape:label="Layer 1"
     inkscape:groupmode="layer"
     id="layer1"
     transform="translate(0,-252)">
    <path
       style="fill:#3eaf7c;stroke-width:0.35277778"
       d="m 17.457351,296.04949 c -0.709168,-0.41305 -0.828562,-2.08887 -0.194028,-2.72341 0.264703,-0.2647 1.579136,-0.42333 3.507776,-0.42333 2.787456,0 3.137316,0.0755 3.633611,0.78405 0.70673,1.009 0.692929,1.18886 -0.156387,2.03817 -0.586482,0.58648 -1.166964,0.70375 -3.439583,0.69483 -1.503715,-0.006 -3.01184,-0.17254 -3.351389,-0.37031 z m 0.559696,-6.27623 c -2.349507,-0.41786 -3.309274,-1.74338 -2.122047,-2.93073 0.512258,-0.51231 8.895857,-0.6502 9.690027,-0.15938 0.234953,0.14521 0.427185,0.73483 0.427185,1.31026 0,0.79813 -0.214326,1.12773 -0.903767,1.38986 -1.260394,0.4792 -5.331058,0.70307 -7.091398,0.38999 z m 11.018977,-3.0693 c -0.990767,-0.99077 -0.629117,-1.81632 1.52016,-3.47015 5.07523,-3.90531 7.202139,-10.48096 5.34007,-16.50965 -1.77275,-5.73949 -7.03568,-9.80472 -12.693395,-9.80472 -2.305124,0 -3.187869,-0.54082 -3.187869,-1.95307 0,-1.09356 0.940378,-1.57471 3.07769,-1.57471 8.156664,0 15.489243,6.72817 16.734743,15.35533 0.92971,6.43974 -2.16953,13.57628 -7.606189,17.51457 -1.55903,1.12935 -2.38372,1.2439 -3.18521,0.4424 z m -12.310602,-3.73713 c -1.622009,-0.45342 -2.289129,-1.56857 -1.651314,-2.76033 0.390867,-0.73035 0.562927,-0.76791 2.241155,-0.48923 0.999779,0.16602 2.770282,0.29651 3.934449,0.28997 5.173751,-0.029 9.468842,-4.75437 8.875462,-9.76453 -0.62221,-5.2536 -5.820106,-8.4299 -10.270017,-6.27573 -1.885449,0.91273 -3.367945,3.10631 -3.367945,4.9834 0,3.86926 4.55803,6.31415 6.698478,3.59301 0.953597,-1.21231 0.897459,-1.7352 -0.337284,-3.14149 -1.253928,-1.42815 -1.054206,-2.71016 0.450388,-2.89102 2.102502,-0.25273 3.768312,1.83795 3.770432,4.73208 0.0042,5.66671 -7.557167,7.88943 -11.688269,3.43587 -1.564802,-1.68695 -2.191448,-3.28995 -2.184678,-5.58856 0.01542,-5.23685 4.015719,-9.09713 9.464544,-9.13326 3.200136,-0.0212 5.564576,1.00065 7.769451,3.35784 4.52154,4.83388 4.15062,11.96221 -0.86664,16.65527 -2.602714,2.43454 -4.461546,3.16809 -8.313922,3.2809 -1.74625,0.0511 -3.78218,-0.0768 -4.52429,-0.28419 z m -6.411281,-4.22103 c -2.7332875,-3.02542 -4.1619595,-8.04281 -3.4224455,-12.01935 0.512449,-2.75555 2.118812,-6.16382 3.7626745,-7.98338 1.597265,-1.76798 4.282105,-3.58752 5.2936,-3.58752 1.7379,0 2.183515,2.03513 0.672285,3.07034 -2.270227,1.55512 -4.42789,3.86369 -5.332222,5.70517 -0.84582,1.72232 -0.974097,2.40326 -0.971903,5.15921 0.0028,3.46083 0.5906,5.10124 2.690781,7.5088 1.135486,1.30168 1.274636,2.23119 0.456491,3.04933 -0.894242,0.89425 -1.746631,0.64995 -3.149261,-0.9026 z"
       id="path3061"
       inkscape:connector-curvature="0"
       sodipodi:nodetypes="ccscccccccsccccsssscccccscscsccsccsccccccssscccccc" />
  </g>
</svg>
